<svg width="122" height="127" viewBox="0 0 122 127" fill="none" xmlns="http://www.w3.org/2000/svg">
<g id="Frame 37030">
<path id="Vector" d="M25.307 53.0333C29.2366 35.5301 47.19 25.0263 64.0259 30.519L65.0455 30.8638C87.0682 38.5433 79.8421 61.2324 90.8535 68.2176C101.865 75.2028 109.78 85.3194 104.966 98.5814C100.151 111.843 70.8981 124.416 47.8418 110.101C29.7208 98.8506 20.3158 75.3067 25.307 53.0333Z" stroke="#9D89EF" stroke-width="0.899889" stroke-miterlimit="10"/>
<path id="Vector_2" d="M30.4569 32.2823C31.7028 24.3828 26.3999 16.9544 18.6124 15.6905C10.8249 14.4266 3.5019 19.8058 2.25594 27.7054C1.00999 35.6049 6.31293 43.0333 14.1004 44.2972C21.8879 45.5611 29.2109 40.1818 30.4569 32.2823Z" stroke="#9D89EF" stroke-width="0.899889" stroke-miterlimit="10"/>
<path id="Vector_3" d="M69.4815 12.7644L69.4825 12.762C69.5715 12.556 69.7164 12.381 69.8994 12.2573C70.0814 12.1342 70.2936 12.0667 70.5111 12.0622H120.467C120.655 12.0651 120.839 12.1149 121.004 12.2077C121.169 12.3008 121.309 12.4345 121.412 12.5972C121.515 12.7599 121.577 12.9464 121.591 13.14C121.606 13.3336 121.573 13.5277 121.496 13.7047L86.0786 94.3472C85.9871 94.5534 85.8394 94.7276 85.6539 94.8495C85.4685 94.9714 85.2529 95.0361 85.033 95.0365H35.0926C34.905 95.0337 34.7206 94.9838 34.556 94.891C34.3906 94.7979 34.25 94.6642 34.1472 94.5015C34.0443 94.3387 33.9827 94.1522 33.9681 93.9587C33.9535 93.7652 33.9865 93.5713 34.0637 93.3944C34.0638 93.3942 34.0639 93.3941 34.0639 93.394L69.4815 12.7644Z" fill="url(#paint0_linear_1_766)" stroke="#DADADA" stroke-width="0.81071"/>
<path id="Vector_4" d="M95.4397 41.2699H95.44C96.3606 41.2707 97.2621 41.001 98.0357 40.4928C98.8093 39.9845 99.4221 39.2593 99.7992 38.404L115.917 1.72756C115.917 1.72726 115.918 1.72696 115.918 1.72666C115.98 1.58338 116.006 1.42639 115.993 1.26992C115.981 1.11313 115.93 0.962333 115.846 0.831156C115.762 0.700009 115.648 0.592793 115.513 0.518683C115.379 0.444675 115.23 0.405855 115.078 0.405355H69.8506C69.109 0.405706 68.3827 0.62376 67.7594 1.03384C67.1362 1.44393 66.6424 2.02876 66.3385 2.71841C66.3385 2.71846 66.3385 2.71852 66.3384 2.71858L49.9782 39.9477C49.9781 39.9479 49.9781 39.948 49.978 39.9482C49.9158 40.0916 49.8896 40.2487 49.902 40.4054C49.9145 40.5621 49.9653 40.7129 50.0493 40.8441C50.1334 40.9753 50.2479 41.0825 50.3821 41.1566C50.5159 41.2305 50.6653 41.2693 50.817 41.2699C50.8174 41.2699 50.8178 41.2699 50.8181 41.2699M95.4397 41.2699L50.817 41.6753L50.8181 41.2699M95.4397 41.2699L50.8181 41.2699M95.4397 41.2699L50.8181 41.2699" fill="white" stroke="#232323" stroke-width="0.81071"/>
<path id="Vector_5" d="M94.322 63.6987L110.441 27.025C110.53 26.8201 110.567 26.5958 110.549 26.3725C110.531 26.1492 110.459 25.934 110.338 25.7463C110.217 25.5587 110.052 25.4046 109.858 25.298C109.664 25.1914 109.447 25.1357 109.226 25.1359H64.0024C63.1804 25.1355 62.3759 25.3771 61.6866 25.8315C60.9973 26.2859 60.4529 26.9335 60.1194 27.6957L43.7584 64.9172C43.6681 65.1218 43.6299 65.346 43.647 65.5694C43.6642 65.7928 43.7363 66.0082 43.8567 66.1961C43.977 66.384 44.1419 66.5383 44.3362 66.6449C44.5305 66.7515 44.748 66.807 44.9689 66.8064H89.5916C90.5917 66.8072 91.5707 66.5142 92.4102 65.9627C93.2496 65.4112 93.9137 64.6249 94.322 63.6987Z" stroke="#DADADA" stroke-width="0.899889" stroke-miterlimit="10"/>
<path id="Vector_6" opacity="0.39" d="M73.822 50.7439H75.8893L70.3394 61.7389H36.7886L38.1435 59.0516" stroke="#656BFC" stroke-width="0.445891" stroke-miterlimit="10"/>
<path id="Vector_7" d="M77.7327 20.2851C81.984 16.5469 83.1857 10.8897 80.4168 7.64939C77.6478 4.4091 71.9567 4.81277 67.7054 8.55101C63.454 12.2893 62.2524 17.9465 65.0213 21.1868C67.7903 24.4271 73.4814 24.0234 77.7327 20.2851Z" fill="#E6F4FF"/>
<path id="Vector_8" d="M77.1412 19.5929C80.8912 16.2954 81.9514 11.3055 79.5092 8.44761C77.067 5.58968 72.0472 5.94599 68.2972 9.24344C64.5471 12.5409 63.4869 17.5308 65.9292 20.3887C68.3714 23.2466 73.3912 22.8903 77.1412 19.5929Z" fill="#D094FF"/>
<path id="Vector_9" d="M72.8629 16.0018C72.8629 16.0018 68.7703 16.6914 67.0243 17.3904C66.6067 17.603 66.2412 17.9076 65.9544 18.2818C65.6676 18.656 65.4669 19.0905 65.3668 19.5535C66.298 21.2396 68.1278 22.3164 70.4883 22.3164C73.5426 22.3164 76.6854 20.5264 78.6968 17.9288C77.6026 16.3088 72.8629 16.0018 72.8629 16.0018Z" fill="#435FC4"/>
<path id="Vector_10" d="M71.4243 14.2345L70.7259 17.2619C70.699 17.3424 70.6901 17.4279 70.6999 17.5123C70.7097 17.5967 70.7379 17.6778 70.7825 17.7498C70.8271 17.8217 70.887 17.8826 70.9577 17.9282C71.0285 17.9737 71.1084 18.0026 71.1915 18.0128C72.0064 18.1302 72.8353 17.9385 73.5195 17.4744C73.6557 17.3895 73.7713 17.2745 73.8576 17.1379C73.9438 17.0013 73.9986 16.8467 74.0177 16.6857C74.1155 15.2688 74.3995 12.3784 74.3995 12.3784L71.4243 14.2345Z" fill="#FF8D68"/>
<path id="Vector_11" d="M70.7865 11.0283C70.7865 11.0283 68.8636 14.9814 69.2407 16.0582C69.6737 16.7808 73.5382 15.1561 74.1714 14.0982C74.8046 13.0403 76.2572 11.1227 75.1026 9.92312C73.9479 8.72349 72.2438 9.11549 70.7865 11.0283Z" fill="#FF8D68"/>
<path id="Vector_12" d="M70.7864 11.0279C70.699 10.6169 70.7307 10.1891 70.8778 9.79601C71.0248 9.40294 71.2809 9.06147 71.6152 8.81284C72.7792 7.99104 74.2691 8.15635 74.8091 8.97814C75.0183 9.2796 75.2095 9.59345 75.3818 9.918C75.5605 9.96611 75.7242 10.0593 75.8577 10.189C75.9913 10.3187 76.0902 10.4805 76.1454 10.6595C76.3363 11.2735 75.1257 12.8368 74.6322 13.2855C74.1387 13.7341 74.2411 13.7578 74.2411 13.7578L74.0782 13.5405C74.1275 12.9014 74.2382 12.2686 74.4087 11.6513C74.4739 11.2829 74.0549 10.7492 73.3192 10.6264C72.5836 10.5037 72.3275 11.1932 70.7864 11.0279Z" fill="#7E3636"/>
<path id="Vector_13" d="M74.5341 12.8278C74.6022 12.693 74.7119 12.5846 74.8464 12.5189C74.9808 12.4533 75.1328 12.434 75.2791 12.4641C75.7447 12.6247 74.8135 14.136 74.306 14.0321C73.7985 13.9282 74.5341 12.8278 74.5341 12.8278Z" fill="#FF8D68"/>
<path id="Vector_14" d="M74.0688 16.1287C73.4997 16.7622 72.8046 17.266 72.0295 17.6069C71.8525 17.6636 71.5918 18.0178 71.5918 18.0178L71.4056 17.5455C71.2165 17.4354 71.0668 17.2672 70.9781 17.0651C70.8894 16.8631 70.8663 16.6377 70.912 16.4215L70.7724 16.5301L70.4045 17.4747C70.276 17.8657 70.1886 18.2694 70.1438 18.6791L71.075 18.1595C71.4035 18.2683 71.7561 18.2781 72.09 18.1879C72.09 18.1879 72.2855 18.8444 72.4578 18.901C72.6301 18.9577 74.0362 17.6117 74.2504 17.1488C74.395 16.8568 74.4578 16.53 74.4319 16.2042L74.0688 16.1287Z" fill="white"/>
<path id="Vector_15" opacity="0.39" d="M103.732 17.8666H84.1396C84.0081 17.8748 83.8769 17.847 83.7597 17.7861C83.6424 17.7253 83.5434 17.6336 83.473 17.5207C83.4026 17.4078 83.3634 17.2777 83.3594 17.1442C83.3554 17.0106 83.3869 16.8785 83.4505 16.7615L86.2208 9.03C86.3406 8.72297 86.5437 8.45665 86.8065 8.26189C87.0694 8.06713 87.3813 7.9519 87.7061 7.92955H107.298C107.428 7.92456 107.557 7.95443 107.671 8.01615C107.786 8.07787 107.882 8.16923 107.951 8.28097C108.019 8.3927 108.058 8.52085 108.062 8.65239C108.065 8.78394 108.035 8.91422 107.973 9.03L105.18 16.7615C105.063 17.0636 104.866 17.327 104.61 17.5221C104.355 17.7173 104.05 17.8365 103.732 17.8666Z" fill="#656BFC"/>
<path id="Vector_16" d="M104.863 11.4249H87.9947L88.2927 10.5984H105.161L104.863 11.4249Z" fill="#D094FF"/>
<path id="Vector_17" d="M97.4603 13.3571H87.3011L87.599 12.5306H97.7583L97.4603 13.3571Z" fill="#D094FF"/>
<path id="Vector_18" d="M89.303 15.1033H86.6724L86.9703 14.2768H89.601L89.303 15.1033Z" fill="#D094FF"/>
<path id="Vector_19" d="M85.0476 21.418C84.9014 21.7661 84.664 22.0668 84.361 22.2874C84.0581 22.5081 83.7014 22.6403 83.3296 22.6696C82.6498 22.6696 82.3239 22.1123 82.5986 21.4228C82.7457 21.0762 82.9836 20.7772 83.2865 20.5582C83.5894 20.3392 83.9457 20.2086 84.3166 20.1806C84.9964 20.1759 85.3223 20.7332 85.0476 21.418Z" fill="#D094FF"/>
<path id="Vector_20" d="M89.3076 21.4185C89.1604 21.7663 88.9219 22.0665 88.6182 22.2863C88.3144 22.5062 87.957 22.6373 87.5849 22.6653C86.9098 22.6653 86.5792 22.108 86.8539 21.4185C87.0027 21.0721 87.2417 20.7735 87.5452 20.5546C87.8487 20.3358 88.2053 20.205 88.5766 20.1763C89.2518 20.1763 89.5823 20.7336 89.3076 21.4185Z" fill="#D094FF"/>
<path id="Vector_21" d="M93.5634 21.418C93.4176 21.7664 93.1803 22.0674 92.8773 22.2881C92.5743 22.5088 92.2173 22.6408 91.8453 22.6696C91.1655 22.6696 90.8396 22.1123 91.1143 21.4228C91.2626 21.0761 91.5015 20.7772 91.8051 20.5583C92.1087 20.3394 92.4656 20.2088 92.837 20.1806C93.5121 20.1759 93.8381 20.7332 93.5634 21.418Z" fill="#D094FF"/>
<path id="Vector_22" d="M97.8235 21.418C97.677 21.7667 97.4388 22.0679 97.135 22.2886C96.8312 22.5093 96.4734 22.6411 96.1008 22.6696C95.4257 22.6696 95.0998 22.1123 95.3698 21.4228C95.5186 21.0764 95.7575 20.7778 96.0611 20.5589C96.3646 20.3401 96.7212 20.2093 97.0925 20.1806C97.7723 20.1759 98.0982 20.7332 97.8235 21.418Z" fill="#FF8D02"/>
<path id="Vector_23" opacity="0.39" d="M102.084 21.4185C101.936 21.766 101.697 22.0659 101.394 22.2857C101.09 22.5054 100.733 22.6367 100.361 22.6653C99.6857 22.6653 99.3551 22.108 99.6298 21.4185C99.7781 21.0718 100.017 20.7729 100.321 20.554C100.624 20.3351 100.981 20.2045 101.353 20.1763C102.028 20.1763 102.354 20.7336 102.084 21.4185Z" fill="#656BFC"/>
<path id="Vector_24" opacity="0.39" d="M91.966 25.2021L86.5557 30.898L80.9593 33.1509L87.3054 37.8785L93.684 32.3574L91.966 25.2021Z" fill="#656BFC"/>
<path id="Vector_25" opacity="0.7" d="M90.6859 28.5127L86.556 30.8978L83.0687 33.1365L87.8038 36.5842L92.2735 32.4375L90.6859 28.5127Z" fill="#656BFC"/>
<path id="Vector_26" d="M91.966 25.2021L86.5557 30.898L80.9593 33.1509L87.2867 37.9258L93.684 32.3574L91.966 25.2021Z" stroke="#435FC4" stroke-width="0.226999" stroke-miterlimit="10"/>
<path id="Vector_27" d="M89.4239 32.8853C89.3767 32.9959 89.3005 33.0914 89.2037 33.1613C89.1068 33.2312 88.993 33.273 88.8745 33.282C88.6603 33.282 88.5532 33.1072 88.6417 32.8853C88.6897 32.7752 88.7661 32.6803 88.8627 32.6105C88.9594 32.5407 89.0728 32.4986 89.1911 32.4885C89.4099 32.4885 89.5123 32.668 89.4239 32.8853Z" fill="#435FC4"/>
<path id="Vector_28" d="M84.1116 28.9567L88.8933 32.7964L80.3542 33.2404" stroke="#435FC4" stroke-width="0.226999" stroke-miterlimit="10"/>
<path id="Vector_29" d="M86.9332 39.248L89.0703 32.7965L94.6994 32.225" stroke="#435FC4" stroke-width="0.226999" stroke-miterlimit="10"/>
<path id="Vector_30" d="M92.2827 24.403L89.0701 32.7957" stroke="#435FC4" stroke-width="0.226999" stroke-miterlimit="10"/>
<path id="Vector_31" d="M84.5446 28.8813C84.4651 29.0686 84.336 29.23 84.1717 29.3475C84.0073 29.4651 83.8141 29.5342 83.6134 29.5472C83.2503 29.5472 83.0733 29.2497 83.2223 28.8813C83.3018 28.6939 83.4309 28.5325 83.5953 28.415C83.7596 28.2974 83.9528 28.2283 84.1535 28.2153C84.5167 28.2153 84.6936 28.5129 84.5446 28.8813Z" fill="#D094FF"/>
<path id="Vector_32" d="M80.6757 33.2447C80.5949 33.4311 80.4655 33.5916 80.3014 33.709C80.1373 33.8263 79.9448 33.896 79.7445 33.9106C79.3814 33.9106 79.2091 33.6131 79.3534 33.2447C79.4334 33.0576 79.5626 32.8965 79.7268 32.7791C79.8911 32.6616 80.0841 32.5923 80.2846 32.5787C80.6431 32.5882 80.8201 32.8763 80.6757 33.2447Z" fill="#FF8D02"/>
<path id="Vector_33" d="M87.5569 39.3514C87.4763 39.5384 87.3471 39.6996 87.183 39.8177C87.019 39.9359 86.8263 40.0065 86.6257 40.022C86.2625 40.022 86.0903 39.7197 86.2346 39.3514C86.3154 39.1649 86.4448 39.0044 86.6089 38.887C86.773 38.7697 86.9655 38.7 87.1658 38.6854C87.529 38.6854 87.7012 38.983 87.5569 39.3514Z" fill="#D094FF"/>
<path id="Vector_34" d="M95.4629 32.2346C95.3829 32.4217 95.2538 32.5828 95.0895 32.7002C94.9252 32.8177 94.7322 32.887 94.5317 32.9006C94.1685 32.9006 93.9916 32.603 94.1359 32.2346C94.2165 32.0476 94.3458 31.8864 94.5098 31.7682C94.6739 31.6501 94.8665 31.5795 95.0671 31.564C95.435 31.564 95.6119 31.8662 95.4629 32.2346Z" fill="#D094FF"/>
<path id="Vector_35" d="M93.0093 24.1811C92.9298 24.3684 92.8007 24.5298 92.6364 24.6474C92.472 24.7649 92.2788 24.834 92.0781 24.847C91.715 24.847 91.5381 24.5495 91.687 24.1811C91.7666 23.9937 91.8956 23.8323 92.06 23.7148C92.2243 23.5973 92.4176 23.5282 92.6182 23.5151C92.9814 23.5151 93.1583 23.8127 93.0093 24.1811Z" fill="#FF8D02"/>
<path id="Vector_36" d="M78.0728 29.7499H61.6746L62.927 26.6044H79.3253L78.0728 29.7499Z" fill="#435FC4"/>
<path id="Vector_37" opacity="0.39" d="M68.1976 36.8294H58.8531L59.3932 35.4834H68.7377L68.1976 36.8294Z" fill="#656BFC"/>
<path id="Vector_38" opacity="0.39" d="M66.796 34.133H59.9285L61.1809 30.9875H68.0531L66.796 34.133Z" fill="#656BFC"/>
<path id="Vector_39" d="M102.853 67.5494L102.853 67.5495C102.681 67.9408 102.402 68.2723 102.05 68.5047C101.698 68.737 101.287 68.8604 100.868 68.8607C100.868 68.8607 100.868 68.8607 100.868 68.8607L78.65 68.8607L78.6489 68.8607C78.6073 68.8608 78.5659 68.8503 78.5287 68.8299C78.4914 68.8094 78.4591 68.7794 78.4352 68.7422C78.4113 68.7049 78.3967 68.6616 78.3933 68.6164C78.3898 68.5712 78.3976 68.526 78.4156 68.485L78.4158 68.4845L86.5638 49.947L86.5639 49.9467C86.6991 49.6386 86.9189 49.3776 87.1961 49.1947C87.4731 49.0118 87.7958 48.9146 88.1252 48.914H110.631C110.672 48.9143 110.713 48.925 110.75 48.9455C110.787 48.966 110.819 48.9961 110.842 49.0333C110.866 49.0706 110.881 49.1137 110.884 49.1587C110.887 49.2038 110.88 49.2488 110.862 49.2896L110.861 49.2904L102.853 67.5494Z" fill="white" stroke="#232323" stroke-width="0.81071"/>
<path id="Vector_40" opacity="0.39" d="M98.6614 63.1901C102.453 60.0435 103.843 55.4061 101.767 52.8321C99.6908 50.2582 94.9344 50.7224 91.1431 53.869C87.3519 57.0156 85.9615 61.6531 88.0377 64.227C90.1138 66.801 94.8702 66.3367 98.6614 63.1901Z" fill="#656BFC"/>
<g id="Clip path group">
<mask id="mask0_1_766" style="mask-type:luminance" maskUnits="userSpaceOnUse" x="87" y="51" width="16" height="15">
<g id="clip-path">
<path id="Vector_41" d="M98.6616 63.1892C102.453 60.0426 103.843 55.4051 101.767 52.8312C99.6909 50.2573 94.9345 50.7215 91.1433 53.8681C87.352 57.0147 85.9617 61.6521 88.0378 64.2261C90.1139 66.8 94.8703 66.3358 98.6616 63.1892Z" fill="white"/>
</g>
</mask>
<g mask="url(#mask0_1_766)">
<g id="Group">
<path id="Vector_42" d="M95.5002 59.2974C95.5002 59.2974 99.1505 61.1394 99.537 62.8255C99.9234 64.5116 98.3031 68.9653 98.3031 68.9653H83.7905C83.7905 68.9653 86.1697 63.7701 88.0181 62.5232C89.8665 61.2763 93.4377 60.3601 93.4377 60.3601L95.5002 59.2974Z" fill="#4385FF"/>
<path id="Vector_43" d="M94.0054 58.0917L92.8647 60.5901C92.7203 60.9019 92.8042 61.1852 93.0695 61.2703C93.7295 61.4518 94.433 61.369 95.0344 61.0388C95.2886 60.9117 95.4829 60.6875 95.5744 60.4154C95.9236 59.2299 96.7058 56.8071 96.7058 56.8071L94.0054 58.0917Z" fill="#D094FF"/>
<path id="Vector_44" d="M94.1263 55.3295C94.1263 55.3295 91.8542 58.4939 91.9427 59.4291C92.1383 60.0808 95.4859 59.056 96.1889 58.2153C96.892 57.3746 98.4005 55.8869 97.744 54.7675C97.0875 53.6482 95.6349 53.8418 94.1263 55.3295Z" fill="#D094FF"/>
<path id="Vector_45" d="M94.2197 54.8619C94.1911 54.9029 94.1647 54.9455 94.1406 54.9894C94.0056 55.2114 93.81 55.6648 94.3594 55.6978L95.0857 55.7356C95.0857 55.7356 96.2544 55.0602 96.7153 55.7781C97.0552 56.4913 95.9424 56.9258 96.0355 57.2847C96.1287 57.6437 96.0821 57.5634 95.9238 57.757C95.7371 58.0877 95.4541 58.3516 95.1137 58.5127C94.5875 58.7489 94.1825 58.7111 93.6703 58.985C93.1582 59.2589 92.199 58.9425 92.1013 58.7064C91.8638 58.508 91.7288 58.9425 91.5798 59.2212C91.4308 59.4998 90.9699 59.5801 91.4122 59.9343C91.8545 60.2885 92.1851 60.4538 92.9626 59.9768C93.436 59.6456 93.9772 59.4277 94.5456 59.3392C95.2192 59.2073 95.8164 58.8164 96.2125 58.2482C96.5105 57.7759 96.6082 57.1147 96.8597 56.8786C97.1111 56.6424 97.2507 56.8786 97.139 57.1572C97.0273 57.4359 98.0935 56.9164 98.3496 56.0851C98.6056 55.2539 98.1587 55.2917 98.1121 54.8146C98.0655 54.3376 98.601 53.7803 98.0329 53.3458C97.4649 52.9113 96.9248 53.4639 96.7246 53.1852C96.5244 52.9066 95.6398 52.8688 94.9321 53.4639C94.5131 53.8218 94.245 54.3287 94.1825 54.8808" fill="#435FC4"/>
<path id="Vector_46" d="M96.7255 56.9548C96.7255 56.9548 97.0328 56.5534 97.3774 56.7139C97.7219 56.8745 96.6883 58.0836 96.3158 57.9513C95.9434 57.8191 96.7255 56.9548 96.7255 56.9548Z" fill="#D094FF"/>
<path id="Vector_47" d="M91.8544 58.8346C91.8544 58.8346 92.1896 57.6019 93.037 57.446C93.8844 57.2902 94.2615 57.8003 94.2057 58.2395C94.1942 58.371 94.218 58.5032 94.2746 58.6221C94.3311 58.741 94.4183 58.8421 94.5269 58.9149C94.5269 58.9149 92.3898 59.9445 91.8544 58.8346Z" fill="#435FC4"/>
</g>
</g>
</g>
<path id="Vector_48" d="M92.7544 92.1988L92.7538 92.2001C92.5825 92.5936 92.3018 92.9268 91.9473 93.1593C91.5928 93.3917 91.1796 93.5135 90.7586 93.5104H90.7556H68.5374V93.5103L68.5317 93.5104C68.4904 93.511 68.4493 93.501 68.4122 93.4809C68.3751 93.4608 68.3429 93.4311 68.3192 93.3941C68.2954 93.357 68.2811 93.314 68.2779 93.2691C68.2747 93.2242 68.2828 93.1793 68.3012 93.1388L68.3012 93.1388L68.3031 93.1345L76.4696 74.5922L76.4697 74.5921C76.605 74.2845 76.8249 74.0242 77.1019 73.842C77.3789 73.6599 77.7015 73.5634 78.0305 73.5637H78.0309L100.547 73.5638L100.553 73.5637C100.594 73.5631 100.635 73.5732 100.672 73.5932C100.709 73.6133 100.742 73.643 100.765 73.68C100.789 73.7171 100.803 73.7601 100.807 73.805C100.81 73.85 100.802 73.8948 100.783 73.9353L100.783 73.9353L100.781 73.9398L92.7544 92.1988Z" fill="white" stroke="#232323" stroke-width="0.81071"/>
<path id="Vector_49" opacity="0.39" d="M88.5924 87.8132C92.4672 84.5972 93.8884 79.8577 91.7666 77.2272C89.6449 74.5968 84.7838 75.0714 80.9089 78.2874C77.0341 81.5034 75.613 86.2429 77.7347 88.8734C79.8564 91.5038 84.7176 91.0292 88.5924 87.8132Z" fill="#656BFC"/>
<g id="Clip path group_2">
<mask id="mask1_1_766" style="mask-type:luminance" maskUnits="userSpaceOnUse" x="76" y="75" width="17" height="16">
<g id="clip-path-2">
<path id="Vector_50" d="M88.5924 87.8131C92.4672 84.5971 93.8884 79.8577 91.7666 77.2272C89.6449 74.5967 84.7838 75.0714 80.9089 78.2874C77.0341 81.5033 75.613 86.2428 77.7347 88.8733C79.8564 91.5038 84.7176 91.0291 88.5924 87.8131Z" fill="white"/>
</g>
</mask>
<g mask="url(#mask1_1_766)">
<g id="Group_2">
<path id="Vector_51" d="M86.8075 80.9124C86.8075 80.9124 87.9109 80.3787 88.0599 81.0258C88.0972 81.2249 88.0857 81.4302 88.0264 81.6237C87.9672 81.8173 87.862 81.9931 87.72 82.1357C87.72 82.1357 88.7164 81.857 88.9865 82.7213C89.2565 83.5856 88.451 83.9965 88.7816 84.3082C89.1122 84.6199 89.8013 85.2528 88.8375 86.3674C87.8737 87.4821 86.4676 88.7289 84.8334 87.9118C83.1991 87.0948 83.7206 83.1889 83.7206 83.1889L84.121 82.0365L86.8075 80.9124Z" fill="#435FC4"/>
<path id="Vector_52" d="M85.7413 77.6064C85.7413 77.6064 83.2783 77.8189 82.4821 79.5664C81.686 81.3139 83.2504 81.4556 83.2504 81.4556L85.7413 77.6064Z" fill="#435FC4"/>
<path id="Vector_53" d="M69.7434 89.4947L69.9017 89.7875C71.0122 91.1267 72.2099 92.389 73.4868 93.5659H77.002C78.5614 92.0826 80.0147 90.4885 81.3507 88.7957C81.3507 88.6257 83.5529 86.2075 83.0734 85.2251C82.5938 84.2428 81.9653 84.3986 81.9653 84.3986C81.3761 84.5458 80.8471 84.876 80.4521 85.3432C79.6512 86.1839 75.6983 92.3946 75.6983 92.3946C75.3244 91.7629 74.8363 91.2085 74.2597 90.7604C73.3285 90.052 70.5954 88.5595 70.5954 88.5595C70.5954 88.5595 70.763 87.3599 70.7444 87.1427C70.7258 86.9254 70.0507 85.8675 69.8412 86.0894C69.6316 86.3114 70.1205 87.2985 70.1205 87.2985C70.1205 87.2985 69.5851 89.2066 69.7434 89.4947Z" fill="#D094FF"/>
<path id="Vector_54" d="M78.5385 91.809C78.5385 91.809 78.6456 92.5741 78.8458 93.5517H85.8297C85.9834 91.9554 86.2953 88.7391 86.5048 87.9787C86.7656 86.9538 86.5328 84.7718 86.6166 84.172C86.7004 83.5721 85.0149 83.7941 85.0149 83.7941L82.8173 83.8319L82.4635 83.983C81.9667 84.2007 81.5429 84.56 81.2436 85.0174C80.9736 85.4377 80.5731 86.0517 80.0331 86.8593C79.167 87.53 77.2395 88.6918 77.3931 90.1654C77.5468 91.6389 78.5385 91.809 78.5385 91.809Z" fill="#4385FF"/>
<path id="Vector_55" d="M83.5484 82.471C82.3224 84.1028 81.4728 85.9927 81.0621 88.0016C81.7 87.8033 83.6322 85.9991 84.7869 84.9034C84.9748 84.7777 85.1185 84.5946 85.1971 84.3807C85.2758 84.1668 85.2854 83.933 85.2245 83.7132C85.2772 83.1512 85.422 82.6021 85.6529 82.0885C85.8205 81.0636 83.5484 82.471 83.5484 82.471Z" fill="#D094FF"/>
<path id="Vector_56" d="M89.671 92.4891C89.671 92.4891 89.9736 92.9142 90.4765 93.5518H93.6006C92.9954 92.7442 92.5204 92.0877 92.3715 91.861C91.8593 91.077 88.2882 83.1802 86.1139 84.1626C85.7134 84.342 84.2515 85.5795 84.8521 86.968C85.4527 88.3566 89.671 92.4891 89.671 92.4891Z" fill="#D094FF"/>
<path id="Vector_57" d="M83.4645 79.2412C82.8881 79.9684 82.374 80.7442 81.928 81.5602C81.5229 82.3537 81.7976 83.0763 82.5472 83.1566C83.6181 83.2746 85.257 83.0007 85.8064 82.3773C86.6072 81.4327 88.3206 79.8127 87.6269 78.5375C86.9332 77.2623 85.4107 77.4276 83.7531 78.939C83.6482 79.0308 83.5516 79.132 83.4645 79.2412Z" fill="#D094FF"/>
<path id="Vector_58" d="M84.186 78.4335C84.186 78.4335 83.1105 80.2187 86.1695 81.3617L86.5512 81.5364C86.5512 81.5364 87.8922 80.4596 87.9108 79.3214C87.9534 78.9329 87.8627 78.5415 87.6541 78.2128C87.4455 77.8842 87.1317 77.6386 86.7654 77.5172C86.1834 77.2716 84.5957 78.0084 84.186 78.4335Z" fill="#435FC4"/>
<path id="Vector_59" d="M86.0904 81.6161C86.0904 81.6161 86.8633 81.0777 86.854 81.5736C86.8446 82.0695 85.7598 82.6127 85.6434 82.4048C85.527 82.197 86.0904 81.6161 86.0904 81.6161Z" fill="#D094FF"/>
</g>
</g>
</g>
<path id="Vector_60" d="M68.6584 77.2295H43.8562C43.0972 77.2295 42.7294 76.6061 43.0367 75.8126L44.7967 71.3872C44.9607 70.9938 45.2281 70.6537 45.5696 70.4038C45.9112 70.154 46.3138 70.004 46.7335 69.9703H71.5358C72.2947 69.9703 72.6625 70.5985 72.3552 71.3872L70.5953 75.8126C70.4312 76.206 70.1639 76.5462 69.8223 76.796C69.4808 77.0459 69.0782 77.1958 68.6584 77.2295Z" fill="#4385FF"/>
<path id="Vector_61" d="M68.4629 73.9701H47.106L47.5251 72.9216H68.8819L68.4629 73.9701Z" fill="white"/>
<path id="Vector_62" d="M48.6005 4.34074H47.7624C47.6135 4.34074 47.539 4.21794 47.5995 4.06681L47.9394 3.21668C47.9731 3.14157 48.0257 3.07675 48.0919 3.02868C48.1581 2.98062 48.2355 2.95099 48.3165 2.94275H49.1546C49.3036 2.94275 49.3781 3.06555 49.3175 3.21668L48.9776 4.06681C48.9439 4.14192 48.8913 4.20674 48.8251 4.25481C48.7589 4.30287 48.6815 4.3325 48.6005 4.34074Z" fill="#F9FBFC"/>
<path id="Vector_63" d="M57.2233 4.34074H56.3806C56.2363 4.34074 56.1618 4.21794 56.2223 4.06681L56.5622 3.21668C56.596 3.14157 56.6485 3.07675 56.7147 3.02868C56.7809 2.98062 56.8583 2.95099 56.9393 2.94275H57.7774C57.9264 2.94275 57.9962 3.06555 57.9357 3.21668L57.6005 4.06681C57.5667 4.14192 57.5141 4.20674 57.4479 4.25481C57.3817 4.30287 57.3043 4.3325 57.2233 4.34074Z" fill="#9D89EF"/>
<path id="Vector_64" d="M46.9804 8.34987H46.1423C45.9933 8.34987 45.9235 8.2318 45.984 8.08067L46.3239 7.23054C46.3576 7.15542 46.4102 7.0906 46.4764 7.04254C46.5426 6.99447 46.62 6.96484 46.701 6.9566H47.5391C47.6881 6.9566 47.7579 7.0794 47.6974 7.23054L47.3621 8.08067C47.3273 8.15554 47.2738 8.21983 47.2068 8.26707C47.1397 8.31432 47.0617 8.34288 46.9804 8.34987Z" fill="#9D89EF"/>
<path id="Vector_65" d="M51.3009 8.34987H50.4629C50.3139 8.34987 50.244 8.2318 50.3046 8.08067L50.6445 7.23054C50.6782 7.15542 50.7308 7.0906 50.797 7.04254C50.8632 6.99447 50.9406 6.96484 51.0216 6.9566H51.8597C52.0087 6.9566 52.0785 7.0794 52.018 7.23054L51.6781 8.08067C51.6461 8.1567 51.5939 8.22218 51.5273 8.26974C51.4607 8.3173 51.3823 8.34506 51.3009 8.34987Z" fill="#F9FBFC"/>
<path id="Vector_66" d="M55.6031 8.34987H54.765C54.616 8.34987 54.5462 8.2318 54.6067 8.08067L54.942 7.23054C54.9757 7.15542 55.0283 7.0906 55.0945 7.04254C55.1607 6.99447 55.2381 6.96484 55.3191 6.9566H56.1618C56.3062 6.9566 56.3806 7.0794 56.3201 7.23054L55.9802 8.08067C55.9458 8.15489 55.893 8.21876 55.8268 8.26596C55.7607 8.31316 55.6836 8.34208 55.6031 8.34987Z" fill="#F9FBFC"/>
<path id="Vector_67" d="M59.0442 8.34987H58.2062C58.0572 8.34987 57.9873 8.2318 58.0479 8.08067L58.3831 7.23054C58.4173 7.15477 58.4706 7.08953 58.5376 7.04142C58.6047 6.99331 58.6831 6.96405 58.7649 6.9566H59.6029C59.7519 6.9566 59.8218 7.0794 59.7612 7.23054L59.4214 8.08067C59.387 8.15489 59.3341 8.21876 59.268 8.26596C59.2018 8.31316 59.1247 8.34208 59.0442 8.34987Z" fill="#F9FBFC"/>
<path id="Vector_68" d="M45.4021 12.3651H44.564C44.415 12.3651 44.3451 12.2471 44.4057 12.0959L44.7409 11.2458C44.7747 11.1707 44.8273 11.1059 44.8934 11.0578C44.9596 11.0097 45.0371 10.9801 45.118 10.9719H45.9608C46.1051 10.9719 46.1796 11.0947 46.1191 11.2458L45.7792 12.0959C45.7448 12.1702 45.6919 12.234 45.6258 12.2812C45.5597 12.3284 45.4825 12.3573 45.4021 12.3651Z" fill="#F9FBFC"/>
<path id="Vector_69" d="M41.9612 12.3651H41.1232C40.9742 12.3651 40.9043 12.2471 40.9602 12.0959L41.3001 11.2458C41.3339 11.1707 41.3865 11.1059 41.4526 11.0578C41.5188 11.0097 41.5962 10.9801 41.6772 10.9719H42.5153C42.6643 10.9719 42.7388 11.0947 42.6783 11.2458L42.3244 12.0959C42.2912 12.1683 42.2405 12.2309 42.177 12.278C42.1135 12.325 42.0393 12.355 41.9612 12.3651Z" fill="#F9FBFC"/>
<path id="Vector_70" d="M49.704 12.3651H48.866C48.717 12.3651 48.6425 12.2471 48.703 12.0959L49.0429 11.2458C49.0767 11.1707 49.1293 11.1059 49.1954 11.0578C49.2616 11.0097 49.339 10.9801 49.42 10.9719H50.2395C50.3885 10.9719 50.463 11.0947 50.4024 11.2458L50.0625 12.0959C50.0298 12.1676 49.9798 12.2299 49.9171 12.2769C49.8545 12.3239 49.7812 12.3543 49.704 12.3651Z" fill="#F9FBFC"/>
<path id="Vector_71" d="M54.0062 12.3651H53.1681C53.0191 12.3651 52.9446 12.2471 53.0052 12.0959L53.345 11.2458C53.3788 11.1707 53.4314 11.1059 53.4976 11.0578C53.5638 11.0097 53.6412 10.9801 53.7222 10.9719H54.5602C54.7092 10.9719 54.7837 11.0947 54.7232 11.2458L54.3833 12.0959C54.3489 12.1702 54.296 12.234 54.2299 12.2812C54.1638 12.3284 54.0867 12.3573 54.0062 12.3651Z" fill="#9D89EF"/>
<path id="Vector_72" d="M43.8051 16.379H42.9671C42.9352 16.3808 42.9034 16.3738 42.8751 16.3588C42.8469 16.3438 42.8231 16.3213 42.8064 16.2937C42.7897 16.2661 42.7807 16.2344 42.7803 16.2021C42.7799 16.1697 42.7881 16.1378 42.8041 16.1098L43.144 15.2549C43.1784 15.1807 43.2313 15.1168 43.2974 15.0696C43.3635 15.0224 43.4406 14.9935 43.5211 14.9857H44.3592C44.5082 14.9857 44.578 15.1085 44.5222 15.2549L44.1869 16.1098C44.1521 16.1847 44.0985 16.2489 44.0315 16.2962C43.9645 16.3434 43.8865 16.372 43.8051 16.379Z" fill="#F9FBFC"/>
<path id="Vector_73" d="M48.9405 83.124H47.7578C47.5483 83.124 47.4505 82.954 47.5344 82.7414L48 81.5418C48.0468 81.4349 48.1213 81.3429 48.2156 81.2755C48.3099 81.2081 48.4204 81.168 48.5354 81.1592H49.718C49.9275 81.1592 50.0253 81.3293 49.9415 81.5418L49.4759 82.7414C49.4291 82.8483 49.3545 82.9404 49.2603 83.0077C49.166 83.0751 49.0555 83.1153 48.9405 83.124Z" fill="#4385FF"/>
<path id="Vector_74" d="M61.0694 83.124H59.8868C59.6773 83.124 59.5749 82.954 59.6587 82.7414L60.1243 81.5418C60.1694 81.4346 60.2429 81.3422 60.3366 81.2747C60.4302 81.2072 60.5404 81.1673 60.6551 81.1592H61.8377C62.0472 81.1592 62.1496 81.3293 62.0612 81.5418L61.5956 82.7414C61.5499 82.8473 61.4769 82.9387 61.3843 83.0061C61.2917 83.0734 61.1829 83.1141 61.0694 83.124Z" fill="#4385FF"/>
<path id="Vector_75" d="M46.6869 88.791H45.5043C45.2948 88.791 45.197 88.621 45.2808 88.4085L45.7464 87.2089C45.7932 87.1019 45.8677 87.0099 45.962 86.9425C46.0563 86.8752 46.1668 86.835 46.2818 86.8263H47.4644C47.6739 86.8263 47.7717 86.9963 47.6879 87.2089L47.2223 88.4085C47.1755 88.5154 47.101 88.6074 47.0067 88.6748C46.9124 88.7422 46.8019 88.7823 46.6869 88.791Z" fill="#9D89EF"/>
<path id="Vector_76" d="M52.7491 88.791H51.5665C51.3617 88.791 51.2592 88.621 51.343 88.4085L51.8086 87.2089C51.8538 87.1017 51.9273 87.0093 52.0209 86.9418C52.1146 86.8743 52.2248 86.8343 52.3394 86.8263H53.522C53.7315 86.8263 53.8293 86.9963 53.7455 87.2089L53.2799 88.4085C53.2335 88.5147 53.1597 88.6063 53.0663 88.6736C52.9729 88.741 52.8633 88.7815 52.7491 88.791Z" fill="#FF8D02"/>
<path id="Vector_77" d="M58.8159 88.791H57.6333C57.4237 88.791 57.3213 88.621 57.4051 88.4085L57.8707 87.2089C57.9159 87.1017 57.9893 87.0093 58.083 86.9418C58.1767 86.8743 58.2869 86.8343 58.4015 86.8263H59.5841C59.7936 86.8263 59.896 86.9963 59.8076 87.2089L59.342 88.4085C59.2963 88.5144 59.2234 88.6058 59.1308 88.6731C59.0382 88.7404 58.9294 88.7812 58.8159 88.791Z" fill="#9D89EF"/>
<path id="Vector_78" d="M63.6625 88.791H62.4799C62.2704 88.791 62.1726 88.621 62.2564 88.4085L62.722 87.2089C62.7688 87.1019 62.8434 87.0099 62.9376 86.9425C63.0319 86.8752 63.1425 86.835 63.2575 86.8263H64.4401C64.6496 86.8263 64.7474 86.9963 64.6636 87.2089L64.198 88.4085C64.1524 88.5163 64.0783 88.6092 63.9837 88.6768C63.8892 88.7443 63.778 88.7839 63.6625 88.791Z" fill="#9D89EF"/>
<path id="Vector_79" d="M44.4335 94.4594H43.2556C43.0461 94.4594 42.9483 94.2894 43.0321 94.0769L43.4977 92.8772C43.5445 92.7703 43.619 92.6783 43.7133 92.6109C43.8076 92.5436 43.9181 92.5034 44.0331 92.4947H45.2157C45.4253 92.4947 45.523 92.6647 45.4392 92.8772L44.9736 94.0769C44.9264 94.1845 44.8512 94.2769 44.756 94.3444C44.6609 94.4118 44.5494 94.4516 44.4335 94.4594Z" fill="#9D89EF"/>
<path id="Vector_80" d="M39.5867 94.4594H38.4041C38.1946 94.4594 38.0921 94.2894 38.176 94.0769L38.6416 92.8772C38.6867 92.7701 38.7602 92.6777 38.8538 92.6102C38.9475 92.5427 39.0577 92.5027 39.1723 92.4947H40.3689C40.5784 92.4947 40.6809 92.6647 40.5924 92.8772L40.1268 94.0769C40.08 94.1848 40.0049 94.2775 39.9097 94.345C39.8144 94.4125 39.7027 94.4521 39.5867 94.4594Z" fill="#9D89EF"/>
<path id="Vector_81" d="M50.4957 94.4594H49.3085C49.1036 94.4594 49.0012 94.2894 49.085 94.0769L49.5506 92.8772C49.5957 92.7701 49.6692 92.6777 49.7629 92.6102C49.8565 92.5427 49.9667 92.5027 50.0814 92.4947H51.264C51.4735 92.4947 51.5713 92.6647 51.4875 92.8772L51.0219 94.0769C50.9758 94.1825 50.9027 94.2736 50.8102 94.3409C50.7177 94.4082 50.6091 94.4491 50.4957 94.4594Z" fill="#9D89EF"/>
<path id="Vector_82" d="M56.5622 94.4594H55.3609C55.1514 94.4594 55.049 94.2894 55.1328 94.0769L55.5984 92.8772C55.6436 92.7701 55.717 92.6777 55.8107 92.6102C55.9043 92.5427 56.0146 92.5027 56.1292 92.4947H57.3118C57.5213 92.4947 57.6237 92.6647 57.5353 92.8772L57.0697 94.0769C57.0256 94.1802 56.9554 94.2699 56.8664 94.337C56.7773 94.4042 56.6724 94.4464 56.5622 94.4594Z" fill="#FF8D02"/>
<path id="Vector_83" d="M42.1801 100.126H40.9975C40.788 100.126 40.6902 99.9565 40.774 99.7439L41.2396 98.5443C41.2865 98.4374 41.361 98.3454 41.4553 98.278C41.5495 98.2106 41.6601 98.1705 41.7751 98.1617H42.9577C43.1672 98.1617 43.265 98.3318 43.1812 98.5443L42.7156 99.7439C42.6688 99.8508 42.5942 99.9429 42.5 100.01C42.4057 100.078 42.2951 100.118 42.1801 100.126Z" fill="#FF8D02"/>
<path id="Vector_84" opacity="0.39" d="M69.5617 59.3148H36.0109L41.5608 48.3198H75.1116L69.5617 59.3148Z" fill="#656BFC"/>
<path id="Vector_85" d="M66.7478 56.7276C68.8139 54.8766 69.3352 52.0511 67.9122 50.4166C66.4892 48.7821 63.6606 48.9577 61.5945 50.8087C59.5284 52.6597 59.007 55.4852 60.4301 57.1197C61.8531 58.7541 64.6816 58.5786 66.7478 56.7276Z" fill="#73A5FF"/>
<path id="Vector_86" d="M63.0341 56.0418C62.9683 56.0444 62.9028 56.0312 62.8429 56.0033C62.7831 55.9754 62.7305 55.9336 62.6896 55.8812L61.5535 54.3416C61.4829 54.2119 61.4633 54.0599 61.4987 53.9162C61.5341 53.7724 61.6219 53.6477 61.7444 53.567C61.7939 53.515 61.8532 53.4737 61.9188 53.4454C61.9844 53.4172 62.0549 53.4026 62.1262 53.4026C62.1975 53.4026 62.268 53.4172 62.3336 53.4454C62.3992 53.4737 62.4585 53.515 62.508 53.567L63.36 54.7147L66.405 52.2446C66.5063 52.1419 66.6436 52.0842 66.7868 52.0842C66.93 52.0842 67.0673 52.1419 67.1686 52.2446C67.2395 52.375 67.2593 52.5277 67.2239 52.6722C67.1885 52.8167 67.1005 52.9423 66.9777 53.0239L63.4578 55.8576C63.3423 55.9676 63.1923 56.0328 63.0341 56.0418Z" fill="white"/>
<path id="Vector_87" d="M37.7289 27.3926C37.701 27.6648 37.596 27.923 37.4266 28.1359C37.2572 28.3489 37.0306 28.5076 36.7742 28.5927C36.5178 28.6779 36.2426 28.6859 35.9818 28.6158C35.721 28.5457 35.4858 28.4004 35.3046 28.1977C35.1235 27.9949 35.0041 27.7432 34.9608 27.4731C34.9176 27.203 34.9525 26.9259 35.0611 26.6754C35.1698 26.425 35.3477 26.2118 35.5732 26.0616C35.7987 25.9114 36.0623 25.8308 36.3321 25.8293C36.7217 25.8488 37.0876 26.0245 37.3495 26.3176C37.6114 26.6108 37.7479 26.9974 37.7289 27.3926Z" stroke="#505E83" stroke-width="0.421569" stroke-miterlimit="10"/>
<path id="Vector_88" d="M23.1418 35.847C22.3673 35.9583 21.6236 36.2294 20.9565 36.6437C20.2895 37.058 19.7132 37.6066 19.2634 38.2557C17.6058 40.5274 20.013 48.8587 27.1505 52.2262C31.8065 54.0776 32.1278 49.8647 30.9638 46.9223C29.7998 43.9799 26.4428 36.5365 23.1418 35.847Z" fill="white"/>
<path id="Vector_89" d="M54.8676 125.063C54.8676 126.136 44.6897 127 32.1326 127C19.5755 127 9.39758 126.136 9.39758 125.063C9.39758 123.991 19.5755 123.127 32.1326 123.127C44.6897 123.127 54.8676 123.996 54.8676 125.063Z" fill="#9D89EF"/>
<path id="Vector_90" d="M23.8263 118.801C23.8263 118.801 24.2919 117.753 26.0984 118.031C27.9049 118.31 28.0958 118.66 28.3053 119.566C28.5148 120.473 29.1294 121.456 29.5438 121.663C29.9582 121.871 31.4713 122.924 32.7145 123.132C33.9576 123.34 34.1113 124.11 33.8179 124.459C33.5246 124.809 28.8547 125.088 27.8211 124.932C27.8211 124.932 24.3058 124.861 23.4817 124.582C22.6576 124.304 23.7564 119.151 23.8263 118.801Z" fill="#16142A"/>
<path id="Vector_91" d="M32.8029 118.801C32.8029 118.801 33.2685 117.753 35.075 118.031C36.8815 118.31 37.0724 118.66 37.2819 119.566C37.4914 120.473 38.106 121.456 38.5204 121.663C38.9348 121.871 40.4526 122.924 41.6911 123.132C42.9296 123.34 43.0879 124.11 42.7946 124.459C42.5012 124.809 37.8313 125.088 36.7977 124.932C36.7977 124.932 33.2871 124.861 32.4583 124.582C31.6296 124.304 32.733 119.151 32.8029 118.801Z" fill="#16142A"/>
<path id="Vector_92" d="M22.1689 92.777C22.0373 91.9344 22.2187 91.0722 22.678 90.3575C23.1374 89.6428 23.842 89.1266 24.6552 88.9089C27.6723 87.936 28.2403 89.3482 29.1529 91.9883C30.0654 94.6284 28.38 119.561 28.38 119.561C28.38 119.561 24.7111 119.646 23.8218 119.089C23.8218 119.089 21.3634 102.558 21.5497 98.5154C21.7359 94.4726 22.1689 92.777 22.1689 92.777Z" fill="#2B3554"/>
<path id="Vector_93" d="M36.2716 28.4606C36.2716 28.4606 36.9793 29.4288 36.9793 29.9341C36.9793 30.4395 36.0481 30.4395 36.0481 30.4395L36.2716 28.4606Z" fill="#FF7759"/>
<path id="Vector_94" d="M32.8822 18.6031C32.8822 18.6031 34.9215 19.1321 36.0762 22.3059C37.2308 25.4797 36.4579 32.2241 35.6897 33.0223C34.9215 33.8204 32.5795 33.4945 29.339 32.4272C25.9122 31.2795 24.7529 27.6664 24.1662 25.2813C22.9697 20.719 26.8807 16.0244 32.8822 18.6031Z" fill="#FF8D68"/>
<path id="Vector_95" d="M25.5629 36.1304L27.2204 30.1181C27.2204 30.1181 30.5261 29.1405 32.5934 31.3744L33.2824 32.3568V36.2674C30.7212 36.6812 28.1082 36.6348 25.5629 36.1304Z" fill="#FF8D68"/>
<path id="Vector_96" d="M20.9537 68.4829C20.2145 73.6986 20.2145 78.9947 20.9537 84.2103C22.1922 92.5983 24.6785 93.4342 26.9459 93.4342C29.2134 93.4342 29.8419 86.7277 30.2563 83.79C30.6707 80.8523 32.3235 70.7972 29.2227 68.4829C26.1218 66.1687 22.6066 65.975 20.9537 68.4829Z" fill="#2B3554"/>
<path id="Vector_97" d="M29.6324 78.3445C29.6324 78.3445 27.1555 71.6331 31.4948 68.7002C35.8342 65.7672 39.1446 66.1829 40.1782 71.005C41.2118 75.8271 41.4167 92.3905 39.9687 95.7485C38.5207 99.1065 33.3572 93.8593 29.6324 78.3445Z" fill="#2B3F63"/>
<path id="Vector_98" d="M24.6924 36.0981C24.6924 36.0981 25.158 34.4498 25.5678 34.3128C25.9775 34.1759 31.0804 33.6139 33.8367 35.2905C35.0799 36.2681 34.9402 36.9671 34.9402 36.9671C34.9402 36.9671 26.7131 35.3661 24.6924 36.0981Z" fill="white"/>
<path id="Vector_99" d="M39.8474 68.4821C39.8474 68.4821 40.2618 69.4928 40.0103 69.8281C39.6798 70.1682 30.3027 73.5356 20.4274 71.0938C20.2598 71.0938 20.6742 69.4078 20.6742 69.4078L39.8474 68.4821Z" fill="#6060E7"/>
<path id="Vector_100" d="M20.3344 53.3224C20.055 51.3671 19.2309 41.7229 19.5056 40.3249C19.7617 39.0166 20.8652 36.6127 23.1419 35.8475C23.3052 35.7919 23.4715 35.7462 23.6401 35.7106C23.6401 35.7106 32.1838 35.1485 38.2458 37.8076C38.2458 37.8076 40.3224 39.555 40.7042 48.4672C40.7042 48.4672 40.5924 49.9691 40.2386 53.1666C39.8847 56.364 40.4015 58.7255 40.8997 61.9229C41.3979 65.1204 42.3943 68.3225 38.744 69.0073C35.2567 69.6827 25.6329 71.3688 19.9898 69.6827C18.8259 68.842 20.488 64.9598 20.488 61.9371C20.488 58.9144 20.3344 53.3224 20.3344 53.3224Z" fill="#8182EE"/>
<path id="Vector_101" d="M33.5619 93.2309C33.524 92.3784 33.7991 91.5418 34.334 90.8832C34.869 90.2245 35.6257 89.7905 36.4579 89.6651C39.5541 89.0369 39.9685 90.5058 40.5877 93.2309C41.207 95.956 37.5334 119.727 37.5334 119.727C37.5334 119.727 33.4781 119.967 32.6493 119.335C32.6493 119.335 31.7181 102.875 32.3234 98.8937C32.9287 94.9123 33.5619 93.2309 33.5619 93.2309Z" fill="#2B3F63"/>
<path id="Vector_102" d="M28.822 76.7719C28.822 76.7719 31.7133 86.2178 33.8876 90.818" stroke="#2A2E59" stroke-width="0.543176" stroke-miterlimit="10"/>
<path id="Vector_103" d="M34.6979 92.7073C35.2373 92.4096 35.8415 92.2537 36.4556 92.2537C37.0696 92.2537 37.6738 92.4096 38.2132 92.7073" stroke="#2A2E59" stroke-width="0.543176" stroke-miterlimit="10"/>
<path id="Vector_104" d="M34.4093 93.8591C34.4093 93.8591 35.8526 93.0232 38.3343 94.8037" stroke="#2A2E59" stroke-width="0.543176" stroke-miterlimit="10"/>
<path id="Vector_105" d="M23.5375 91.4502C23.5375 91.4502 24.6736 90.4017 27.2623 91.5541" stroke="#2A2E59" stroke-width="0.543176" stroke-miterlimit="10"/>
<path id="Vector_106" d="M24.3618 92.4986C24.8827 92.2633 25.4574 92.1777 26.0231 92.251C26.5887 92.3243 27.1237 92.5537 27.5697 92.9142" stroke="#2A2E59" stroke-width="0.543176" stroke-miterlimit="10"/>
<path id="Vector_107" d="M28.189 94.1761L27.5698 115.562" stroke="#2A2E59" stroke-width="0.543176" stroke-miterlimit="10"/>
<path id="Vector_108" d="M36.7372 76.2469C36.7372 76.2469 39.0652 77.6638 40.0429 75.4062" stroke="#2A2E59" stroke-width="0.543176" stroke-miterlimit="10"/>
<path id="Vector_109" d="M39.0651 76.5112C39.0651 76.5112 40.1685 85.1778 39.8892 90.9114" stroke="#2A2E59" stroke-width="0.543176" stroke-miterlimit="10"/>
<path id="Vector_110" d="M31.9602 31.6443C31.9602 31.6443 32.6819 33.5335 35.1123 33.217" stroke="#E66657" stroke-width="0.543176" stroke-miterlimit="10"/>
<path id="Vector_111" d="M35.0797 19.9926C35.0797 19.9926 36.2716 21.6315 36.3275 22.6044C36.3833 23.5773 34.8748 24.5597 34.6374 25.1406C34.3999 25.7215 34.9214 26.4867 34.7025 26.8598C34.5414 27.2194 34.4422 27.6044 34.4092 27.998L34.4837 28.8434C34.4985 28.9911 34.4592 29.1391 34.3734 29.2593C34.2875 29.3795 34.1611 29.4635 34.0181 29.4952L33.8412 29.5282C33.7181 29.5539 33.59 29.5349 33.4793 29.4745C33.3687 29.414 33.2825 29.316 33.2359 29.1976C32.9705 28.527 32.4258 27.2659 31.9974 27.1573C31.4061 27.0062 30.8195 28.0547 30.6006 28.5742C30.4796 28.8717 30.1676 29.6652 29.9162 30.3028C29.8092 30.5761 29.6284 30.8133 29.3945 30.9871C29.1606 31.1608 28.8831 31.2642 28.5939 31.2852C28.0355 31.3511 27.4715 31.3511 26.9131 31.2852C26.3963 31.1388 23.7611 26.1891 23.6866 23.804C23.6121 21.4189 25.2323 19.0244 26.9457 18.2782C28.6591 17.5319 31.9136 16.8566 35.0797 19.9926Z" fill="#7E3636"/>
<path id="Vector_112" d="M23.1558 40.7403C23.1558 41.411 25.9494 51.5464 25.4838 53.3364C25.0182 55.1264 23.8262 67.6469 23.8262 67.6469" stroke="#6060E7" stroke-width="0.543176" stroke-miterlimit="10"/>
<path id="Vector_113" d="M30.8428 16.7378C30.8428 16.7378 32.4584 16.8039 33.0218 15.9821C33.5851 15.1604 35.387 14.9714 36.6907 16.2986C37.9943 17.6257 37.9384 20.0769 36.8164 20.9696C36.8164 20.9696 38.1247 20.7145 38.3109 21.6639C38.4972 22.6132 36.8769 24.0631 34.9493 24.4976C34.9493 24.4976 31.8392 23.6144 30.9033 24.1859C29.9675 24.7574 23.7005 24.1245 23.7005 24.1245C23.7005 24.1245 22.3038 22.8635 22.6902 21.7253C23.0767 20.587 23.4352 21.7914 23.4352 21.7914C23.4352 21.7914 23.1232 20.2092 25.1765 17.9374C27.2298 15.6657 30.0932 16.9267 30.8428 16.7378Z" fill="#7E3636"/>
<path id="Vector_114" d="M61.4137 50.5776L65.8322 50.7665C65.8322 50.7665 65.7111 51.2105 65.0267 51.338C64.3423 51.4655 61.7675 51.7772 61.7675 51.7772L61.4137 50.5776Z" fill="#EB7754"/>
<path id="Vector_115" d="M61.9632 51.5276C62.5578 51.4151 63.1604 51.3519 63.7651 51.3387C64.077 51.4001 64.389 53.2279 64.389 53.2279L63.2064 54.4889C63.2064 54.4889 62.7687 54.3 63.2064 53.6057L63.4531 53.1617L61.6513 52.4675L61.9632 51.5276Z" fill="#FF8D68"/>
<path id="Vector_116" d="M57.6891 52.5995L59.5515 52.3492C59.5515 52.3492 61.1066 50.767 61.4139 50.5781C61.7212 50.3891 63.2763 52.8545 63.4672 53.1662C63.4672 53.4213 62.536 54.2431 61.6048 54.3659C60.6736 54.4887 60.3617 54.2431 60.3617 54.2431L58.3084 55.0601L57.6891 52.5995Z" fill="#FF8D68"/>
<path id="Vector_117" d="M38.2458 37.8074C38.2458 37.8074 34.0787 37.7838 34.2044 42.9413C34.3301 48.0987 43.0507 56.5764 45.4066 57.5824C47.7625 58.5884 57.852 55.816 58.7226 55.3107C59.5933 54.8053 59.3465 52.6564 57.9777 52.151L47.6461 51.6504C47.6461 51.6504 41.1697 38.2278 38.2458 37.8074Z" fill="white"/>
<path id="Vector_118" d="M47.8139 52.4957C48.1818 52.9153 48.4556 53.4109 48.6163 53.9482C48.7771 54.4856 48.821 55.0519 48.7451 55.6081" stroke="#A6D0F4" stroke-width="0.429677" stroke-miterlimit="10"/>
<path id="Vector_119" d="M48.4749 52.2407C49.087 52.4632 49.6233 52.8591 50.0202 53.3814C50.4172 53.9038 50.6581 54.5307 50.7144 55.1878" stroke="#A6D0F4" stroke-width="0.429677" stroke-miterlimit="10"/>
<path id="Vector_120" d="M37.7292 27.3979H33.4131" stroke="#505E83" stroke-width="0.421569" stroke-miterlimit="10"/>
<path id="Vector_121" d="M33.9438 27.9179C33.9438 27.9179 33.6505 26.6285 32.5749 27.2236C31.4994 27.8187 32.7705 30.8981 33.6505 30.6997C34.5304 30.5013 34.1207 28.4138 33.9438 27.9179Z" fill="#FF7759"/>
<path id="Vector_122" d="M24.9297 21.8533C24.9297 21.8533 27.9141 21.1591 30.0512 23.4308" stroke="#663136" stroke-width="0.429677" stroke-miterlimit="10"/>
<path id="Vector_123" d="M25.3208 21.3902C25.7848 20.9585 26.3522 20.6576 26.9665 20.5176C27.5808 20.3776 28.2206 20.4032 28.822 20.592" stroke="#663136" stroke-width="0.429677" stroke-miterlimit="10"/>
<path id="Vector_124" d="M25.0325 22.444C25.3559 22.5043 25.6618 22.6375 25.9277 22.8337C26.1936 23.0298 26.4127 23.284 26.5689 23.5775" stroke="#663136" stroke-width="0.429677" stroke-miterlimit="10"/>
<path id="Vector_125" d="M34.0786 16.4218C34.0786 16.4218 37.0631 17.3664 36.3787 20.1482" stroke="#663136" stroke-width="0.429677" stroke-miterlimit="10"/>
</g>
<defs>
<linearGradient id="paint0_linear_1_766" x1="33.5389" y1="53.5541" x2="122.021" y2="53.5541" gradientUnits="userSpaceOnUse">
<stop stop-color="white" stop-opacity="0.2"/>
<stop offset="1" stop-color="white" stop-opacity="0.7"/>
</linearGradient>
</defs>
</svg>
