<svg width="40" height="40" viewBox="0 0 40 40" fill="none" xmlns="http://www.w3.org/2000/svg">
<g id="Social platforms logo">
<g id="Logo">
<path id="Vector" d="M8.43469 25.2823C8.43469 27.6052 6.55727 29.4827 4.23437 29.4827C1.91147 29.4827 0.0340576 27.6052 0.0340576 25.2823C0.0340576 22.9594 1.91147 21.082 4.23437 21.082H8.43469V25.2823ZM10.5348 25.2823C10.5348 22.9594 12.4123 21.082 14.7352 21.082C17.0581 21.082 18.9355 22.9594 18.9355 25.2823V35.7831C18.9355 38.106 17.0581 39.9835 14.7352 39.9835C12.4123 39.9835 10.5348 38.106 10.5348 35.7831V25.2823Z" fill="#E01E5A"/>
<path id="Vector_2" d="M14.7329 8.41723C12.41 8.41723 10.5326 6.53982 10.5326 4.21692C10.5326 1.89402 12.41 0.0166016 14.7329 0.0166016C17.0558 0.0166016 18.9332 1.89402 18.9332 4.21692V8.41723H14.7329ZM14.7329 10.5492C17.0558 10.5492 18.9332 12.4266 18.9332 14.7495C18.9332 17.0724 17.0558 18.9498 14.7329 18.9498H4.20032C1.87741 18.9498 0 17.0724 0 14.7495C0 12.4266 1.87741 10.5492 4.20032 10.5492H14.7329Z" fill="#36C5F0"/>
<path id="Vector_3" d="M31.5676 14.7495C31.5676 12.4266 33.445 10.5492 35.7679 10.5492C38.0908 10.5492 39.9682 12.4266 39.9682 14.7495C39.9682 17.0724 38.0908 18.9498 35.7679 18.9498H31.5676V14.7495ZM29.4674 14.7495C29.4674 17.0724 27.59 18.9498 25.2671 18.9498C22.9442 18.9498 21.0668 17.0724 21.0668 14.7495V4.21692C21.0668 1.89402 22.9442 0.0166016 25.2671 0.0166016C27.59 0.0166016 29.4674 1.89402 29.4674 4.21692V14.7495V14.7495Z" fill="#2EB67D"/>
<path id="Vector_4" d="M25.2671 31.5828C27.59 31.5828 29.4674 33.4602 29.4674 35.7831C29.4674 38.106 27.59 39.9835 25.2671 39.9835C22.9442 39.9835 21.0668 38.106 21.0668 35.7831V31.5828H25.2671ZM25.2671 29.4827C22.9442 29.4827 21.0668 27.6052 21.0668 25.2823C21.0668 22.9594 22.9442 21.082 25.2671 21.082H35.7997C38.1226 21.082 40 22.9594 40 25.2823C40 27.6052 38.1226 29.4827 35.7997 29.4827H25.2671Z" fill="#ECB22E"/>
</g>
</g>
</svg>
