<svg width="40" height="40" viewBox="0 0 40 40" fill="none" xmlns="http://www.w3.org/2000/svg">
<g id="Social platforms logo" clip-path="url(#clip0_1_1256)">
<g id="Logo">
<path id="Shape" d="M28.0838 0H11.9162C5.34559 0 0 5.34559 0 11.9162V28.0838C0 34.6544 5.34559 40 11.9162 40H28.0838C34.6544 40 40 34.6544 40 28.0838V11.9162C39.9999 5.34559 34.6543 0 28.0838 0ZM35.976 28.0838C35.976 32.4425 32.4425 35.976 28.0838 35.976H11.9162C7.5575 35.976 4.024 32.4425 4.024 28.0838V11.9162C4.024 7.55743 7.5575 4.024 11.9162 4.024H28.0838C32.4425 4.024 35.976 7.55743 35.976 11.9162V28.0838Z" fill="url(#paint0_linear_1_1256)"/>
<path id="Shape_2" d="M20 9.65454C14.2955 9.65454 9.65454 14.2955 9.65454 19.9999C9.65454 25.7043 14.2955 30.3453 20 30.3453C25.7044 30.3453 30.3454 25.7044 30.3454 19.9999C30.3454 14.2954 25.7044 9.65454 20 9.65454ZM20 26.3214C16.5087 26.3214 13.6785 23.4912 13.6785 20C13.6785 16.5087 16.5088 13.6785 20 13.6785C23.4912 13.6785 26.3214 16.5087 26.3214 20C26.3214 23.4911 23.4911 26.3214 20 26.3214Z" fill="url(#paint1_linear_1_1256)"/>
<path id="Shape_3" d="M30.365 12.2112C31.7341 12.2112 32.8439 11.1014 32.8439 9.73232C32.8439 8.36326 31.7341 7.25342 30.365 7.25342C28.996 7.25342 27.8861 8.36326 27.8861 9.73232C27.8861 11.1014 28.996 12.2112 30.365 12.2112Z" fill="url(#paint2_linear_1_1256)"/>
</g>
</g>
<defs>
<linearGradient id="paint0_linear_1_1256" x1="20" y1="39.8835" x2="20" y2="0.310672" gradientUnits="userSpaceOnUse">
<stop stop-color="#E09B3D"/>
<stop offset="0.3" stop-color="#C74C4D"/>
<stop offset="0.6" stop-color="#C21975"/>
<stop offset="1" stop-color="#7024C4"/>
</linearGradient>
<linearGradient id="paint1_linear_1_1256" x1="20" y1="39.8834" x2="20" y2="0.31064" gradientUnits="userSpaceOnUse">
<stop stop-color="#E09B3D"/>
<stop offset="0.3" stop-color="#C74C4D"/>
<stop offset="0.6" stop-color="#C21975"/>
<stop offset="1" stop-color="#7024C4"/>
</linearGradient>
<linearGradient id="paint2_linear_1_1256" x1="30.365" y1="39.8834" x2="30.365" y2="0.310601" gradientUnits="userSpaceOnUse">
<stop stop-color="#E09B3D"/>
<stop offset="0.3" stop-color="#C74C4D"/>
<stop offset="0.6" stop-color="#C21975"/>
<stop offset="1" stop-color="#7024C4"/>
</linearGradient>
<clipPath id="clip0_1_1256">
<rect width="40" height="40" fill="white"/>
</clipPath>
</defs>
</svg>
