<svg width="40" height="40" viewBox="0 0 40 40" fill="none" xmlns="http://www.w3.org/2000/svg">
<g id="Social platforms logo">
<g id="Logo">
<path id="Vector" d="M0.0161438 40L2.88605 29.3385C0.571543 25.1853 -0.1638 20.3388 0.814961 15.6885C1.79372 11.0381 4.42093 6.89581 8.21449 4.02164C12.0081 1.14747 16.7135 -0.265758 21.4674 0.0412894C26.2213 0.348337 30.7047 2.35506 34.095 5.69323C37.4852 9.03139 39.5549 13.4771 39.9242 18.2145C40.2936 22.9519 38.9377 27.6633 36.1056 31.4841C33.2734 35.3049 29.1549 37.9788 24.5057 39.0151C19.8566 40.0515 14.9886 39.3808 10.7952 37.1261L0.0161438 40ZM11.315 33.1365L11.9816 33.531C15.019 35.3267 18.5666 36.0698 22.0716 35.6445C25.5766 35.2191 28.842 33.6493 31.3591 31.1795C33.8762 28.7097 35.5036 25.4788 35.9875 21.9902C36.4715 18.5016 35.7849 14.9513 34.0348 11.8925C32.2846 8.8338 29.5692 6.43844 26.3117 5.07974C23.0542 3.72104 19.4376 3.47533 16.0255 4.38089C12.6134 5.28646 9.59747 7.29244 7.44767 10.0862C5.29787 12.88 4.13498 16.3047 4.14022 19.8265C4.13737 22.7467 4.94703 25.6104 6.47909 28.0988L6.89714 28.7862L5.29271 34.7369L11.315 33.1365Z" fill="#00D95F"/>
<path id="Vector_2" fill-rule="evenodd" clip-rule="evenodd" d="M27.495 22.5641C27.1043 22.2497 26.6467 22.0284 26.1572 21.9171C25.6677 21.8058 25.1591 21.8074 24.6703 21.9217C23.9359 22.226 23.4614 23.3756 22.9868 23.9504C22.8867 24.0881 22.7397 24.1848 22.5733 24.2221C22.4069 24.2595 22.2325 24.235 22.0829 24.1532C19.3941 23.1028 17.1404 21.1765 15.6877 18.6872C15.5638 18.5319 15.5052 18.3346 15.5242 18.137C15.5431 17.9394 15.6382 17.7569 15.7894 17.6278C16.3187 17.1052 16.7073 16.4579 16.9193 15.7457C16.9664 14.9602 16.786 14.1778 16.3996 13.4917C16.1009 12.5299 15.5324 11.6734 14.7612 11.0235C14.3635 10.8451 13.9225 10.7853 13.4915 10.8513C13.0604 10.9173 12.6577 11.1063 12.332 11.3955C11.7664 11.8821 11.3176 12.4892 11.0184 13.1718C10.7192 13.8545 10.5773 14.5954 10.6033 15.34C10.605 15.7581 10.6581 16.1745 10.7614 16.5797C11.0238 17.5533 11.4273 18.4835 11.9591 19.3409C12.3428 19.9976 12.7615 20.6334 13.2133 21.2455C14.6816 23.2561 16.5274 24.9632 18.648 26.272C19.7122 26.9371 20.8496 27.4779 22.0377 27.8836C23.2719 28.4417 24.6346 28.6559 25.981 28.5035C26.7481 28.3877 27.475 28.0855 28.0976 27.6237C28.7202 27.1619 29.2195 26.5545 29.5514 25.855C29.7465 25.4324 29.8057 24.96 29.7209 24.5026C29.5175 23.5672 28.2634 23.0149 27.495 22.5641Z" fill="#00D95F"/>
</g>
</g>
</svg>
