<svg width="65" height="47" viewBox="0 0 65 47" fill="none" xmlns="http://www.w3.org/2000/svg">
<g id="stars 2_layerstyle">
<g id="Group">
<path id="Vector" fill-rule="evenodd" clip-rule="evenodd" d="M31.8909 0.0142822H32.5758C32.9468 0.0142822 33.4177 0.100232 33.646 0.214831C33.86 0.32943 34.1454 0.529979 34.2738 0.673228C34.4023 0.830802 35.1585 2.39222 35.9576 4.1685C36.7566 5.94479 37.5842 7.77838 37.7982 8.2511C38.0123 8.72382 38.3405 9.45439 38.5402 9.88414C38.7257 10.3139 39.2109 11.3883 39.6104 12.2477C40.1241 13.3651 40.4808 13.9524 40.8232 14.2246C41.2656 14.5827 41.5224 14.64 43.5486 14.8692C44.9755 15.0411 45.8031 15.0698 45.8031 14.9838C45.8031 14.8979 45.8602 14.9122 45.9172 15.0125C45.9743 15.1127 47.1301 15.299 48.7282 15.4852C50.2122 15.6571 51.582 15.7717 51.7532 15.743C51.9387 15.7144 52.0814 15.7287 52.0814 15.7717C52.0814 15.8146 52.8376 15.9292 53.7508 16.0295C54.7639 16.1441 55.6343 16.316 55.934 16.4736C56.2051 16.6168 56.5761 16.9463 56.7616 17.2185C56.9899 17.5766 57.0755 17.9061 57.0755 18.4648C57.0755 18.8659 56.9899 19.3815 56.8757 19.6107C56.7759 19.8256 56.2479 20.3843 55.7057 20.857C55.1635 21.3297 52.9518 23.3209 50.7972 25.2834C48.6426 27.2459 46.702 29.0222 46.4737 29.2514C46.2597 29.4806 46.0314 29.9247 45.9458 30.2398C45.8174 30.7269 45.9172 31.3572 46.5879 34.5803C47.0302 36.6431 47.4012 38.4623 47.444 38.6199C47.4725 38.7775 47.7722 40.1956 48.0861 41.7714C48.5284 43.9201 48.6426 44.7796 48.5712 45.2093C48.5142 45.5245 48.3001 45.9686 48.1004 46.1978C47.9006 46.427 47.5582 46.6991 47.3299 46.7994C47.1158 46.914 46.6449 47 46.2597 47C45.6889 47 45.3037 46.8424 43.5914 45.8683C42.4927 45.2523 39.7674 43.7052 37.5271 42.4303C35.2869 41.1554 33.2322 40.0524 32.9611 39.9808C32.6186 39.8805 32.3047 39.8948 31.9623 40.0094C31.6912 40.0954 30.8208 40.5394 30.036 40.9978C29.2512 41.4419 26.7399 42.8744 24.4711 44.1779C22.2024 45.4672 20.1191 46.6275 19.8623 46.7708C19.6197 46.8997 19.1203 47 18.7636 47C18.4068 47 17.9217 46.8997 17.6934 46.7851C17.4508 46.6705 17.1084 46.3553 16.9086 46.1118C16.7089 45.854 16.5234 45.4099 16.4805 45.1377C16.4235 44.8655 16.4377 44.3785 16.6232 43.519L17.9074 43.2612C18.6066 43.1179 19.7767 42.8028 20.4758 42.5592C21.175 42.3157 22.4592 41.7714 23.3296 41.3559C24.2 40.9405 25.5127 40.2243 26.2547 39.7659C26.9967 39.2932 28.3523 38.362 29.2512 37.6744C30.1501 36.9868 31.4486 35.9125 32.1192 35.2965C32.7899 34.6805 33.6175 33.8497 33.9742 33.4629C34.3166 33.0618 34.8446 32.4172 35.13 32.0304C35.4153 31.6293 35.9433 30.7269 36.3143 30.0249C36.671 29.323 37.1561 28.1197 37.3987 27.3748C37.6413 26.6299 37.9552 25.3121 38.0979 24.4382C38.2406 23.5644 38.3975 22.1176 38.4403 21.2151C38.4974 20.3127 38.4689 18.7656 38.3833 17.7772C38.3119 16.7887 38.1122 15.1844 37.9409 14.1959C37.7697 13.2075 37.4273 11.6318 37.1704 10.6863C36.9136 9.74089 36.457 8.32272 36.1716 7.53485C35.8862 6.74699 35.344 5.45774 34.973 4.66987C34.602 3.88201 34.0027 2.76466 33.6317 2.20599C33.2607 1.633 32.7185 0.902426 32.4332 0.587278L31.8909 0.0142822ZM48.7853 11.4742C49.1848 11.4742 49.6129 11.5888 49.8983 11.7607C50.2264 11.9612 50.5118 12.3767 50.9256 13.2362C51.2253 13.8808 51.4678 14.4251 51.4536 14.4395C51.4393 14.4538 50.3121 14.3392 48.928 14.1816C47.5582 14.024 46.4166 13.8951 46.4024 13.8665C46.3881 13.8521 46.5593 13.4367 46.8019 12.9497C47.073 12.348 47.3727 11.9469 47.6866 11.7607C47.972 11.5888 48.4 11.4742 48.7853 11.4742ZM18.3212 13.9238C18.5353 13.9238 18.678 14.0813 18.8635 14.5254C18.9919 14.8549 19.0918 15.1414 19.0775 15.17C19.0489 15.1844 17.6649 15.3706 15.9669 15.5568C14.2831 15.7573 12.8848 15.9006 12.8705 15.8719C12.842 15.8576 12.9561 15.5425 13.1131 15.17C13.3271 14.6543 13.4841 14.4824 13.7267 14.4681C13.8979 14.4681 14.9395 14.3392 16.0382 14.2103C17.1369 14.067 18.1643 13.9381 18.3212 13.9238V13.9238ZM8.93231 20.9286C9.54588 20.9286 9.60295 20.9859 14.1547 25.1258C17.2368 27.9478 18.8349 29.5093 19.0061 29.8531C19.1346 30.1395 19.2487 30.5263 19.2487 30.7125C19.2487 30.8844 18.9205 32.6751 18.5067 34.6949C18.0929 36.7147 17.7077 38.4337 17.6506 38.491C17.5935 38.5626 17.3224 38.5053 17.037 38.3764C16.7659 38.2331 16.4805 38.1185 16.3949 38.1185C16.3236 38.1185 16.2522 38.0039 16.2522 37.875C16.2522 37.7317 16.5091 36.3709 16.823 34.8668C17.1369 33.3483 17.3938 31.9445 17.3938 31.7439C17.3938 31.5434 17.3081 31.1423 17.194 30.8558C17.037 30.4404 15.8099 29.2371 11.9716 25.7275C9.23196 23.2063 6.97748 21.1435 6.97748 21.1435C6.97748 21.1435 7.24859 21.1292 7.59104 21.1005C7.91922 21.0719 8.21887 21.0289 8.24741 20.9859C8.29021 20.9573 8.58986 20.9286 8.93231 20.9286V20.9286ZM60.6142 21.4587C62.1552 21.6306 63.4965 21.7738 63.5964 21.7738C63.6963 21.7881 63.9959 22.003 64.2813 22.2609C64.5952 22.5474 64.852 22.9341 64.9377 23.2922C65.0375 23.7363 65.0233 23.9942 64.852 24.4382C64.6808 24.8823 63.9531 25.6272 61.4989 27.8762C59.5583 29.6382 58.2598 30.9274 58.1029 31.2426C57.8746 31.7296 57.8888 31.8299 58.7592 36.1847C59.4584 39.637 59.6296 40.7113 59.5155 40.9835C59.3871 41.3273 59.3442 41.3416 58.6165 41.2413C58.1885 41.184 57.632 41.0551 57.3466 40.9692C57.0755 40.8689 56.3763 40.5538 55.777 40.2673C55.192 39.9664 54.0077 39.2645 53.1373 38.6772C52.1385 38.0182 51.0112 37.0871 50.0409 36.1274C48.9422 35.0243 48.4286 34.394 48.1575 33.821C47.9577 33.3913 47.7579 32.6751 47.7151 32.2453C47.6438 31.6866 47.6866 31.2855 47.8435 30.8844C48.0148 30.426 49.0421 29.409 52.9803 25.7991C55.6914 23.3209 57.8888 21.2581 57.8603 21.2151C57.8317 21.1722 59.0731 21.2868 60.6142 21.4587Z" fill="#0559FB"/>
<path id="Vector_2" fill-rule="evenodd" clip-rule="evenodd" d="M31.8196 0C31.8624 0 32.1335 0.257848 32.4332 0.587321C32.7185 0.902469 33.2607 1.63304 33.6317 2.19171C34.0027 2.76471 34.602 3.88205 34.973 4.66992C35.344 5.45779 35.8862 6.74703 36.1716 7.5349C36.457 8.32277 36.9136 9.74093 37.1704 10.6864C37.4273 11.6318 37.7697 13.2076 37.9409 14.196C38.1122 15.1844 38.3119 16.7888 38.3833 17.7772C38.4689 18.7656 38.4974 20.3127 38.4403 21.2152C38.3975 22.1176 38.2406 23.5645 38.0979 24.4383C37.9552 25.3121 37.6413 26.63 37.3987 27.3749C37.1562 28.1198 36.671 29.3231 36.3143 30.025C35.9433 30.7269 35.4153 31.6294 35.13 32.0305C34.8446 32.4173 34.3166 33.0619 33.9742 33.463C33.6175 33.8497 32.7899 34.6806 32.1192 35.2966C31.4486 35.9125 30.1501 36.9869 29.2512 37.6745C28.3523 38.3621 26.9967 39.2932 26.2547 39.7659C25.5127 40.2243 24.2 40.9406 23.3296 41.356C22.4592 41.7714 21.0894 42.3444 20.2618 42.6166C19.4342 42.8888 18.2784 43.2039 16.6232 43.5191L17.1512 40.9979C17.4366 39.6084 18.0359 36.8007 18.4782 34.7522C18.9063 32.7038 19.263 30.8845 19.263 30.6983C19.263 30.5264 19.1488 30.1396 19.0061 29.8531C18.8492 29.5093 17.2939 27.9909 14.3402 25.3121C11.9002 23.0917 9.60295 21.029 9.21769 20.7138C8.81816 20.3987 8.3901 19.9546 8.24741 19.7111C8.09045 19.4389 7.99057 18.9948 7.99057 18.4934C7.99057 17.8632 8.06191 17.591 8.36156 17.1899C8.56132 16.9034 8.93232 16.5739 9.18916 16.445C9.43173 16.3161 10.3735 16.1442 11.2724 16.0582C12.1714 15.9579 14.2974 15.7287 15.9811 15.5425C17.6649 15.3563 20.0478 15.0841 21.2606 14.9409C22.4735 14.7833 23.6578 14.5684 23.9004 14.4538C24.1429 14.3249 24.4426 14.11 24.571 13.9668C24.6994 13.8092 25.9694 11.1161 27.3962 7.96465C28.8231 4.81317 30.1501 1.89089 30.3356 1.47546C30.5639 0.988418 30.8636 0.601646 31.206 0.372447C31.5057 0.171899 31.7768 0.0143249 31.8196 0V0ZM16.1238 11.4742C16.5662 11.4742 16.9229 11.5745 17.2511 11.7894C17.565 11.9899 17.8932 12.434 18.15 12.9354C18.364 13.3938 18.5353 13.7949 18.5067 13.8379C18.4925 13.8808 17.3795 14.0384 16.0525 14.196C14.7255 14.3536 13.584 14.4682 13.5412 14.4538C13.4841 14.4252 13.6981 13.8952 13.9835 13.2649C14.3688 12.4627 14.6684 12.0186 15.0109 11.8037C15.3105 11.5888 15.71 11.4742 16.1238 11.4742V11.4742ZM7.23432 21.0863C7.24859 21.0863 7.23432 21.1149 7.20578 21.1865C7.17724 21.2438 9.36038 23.3209 12.0715 25.7991C15.8385 29.2515 17.037 30.4404 17.194 30.8558C17.3081 31.1423 17.408 31.5005 17.408 31.6437C17.4223 31.7726 17.1512 33.2911 16.8087 34.9957C16.2522 37.8177 16.1666 38.1186 15.9098 38.1186C15.7528 38.1186 13.9264 39.0783 11.8432 40.2673C8.56133 42.1295 7.9763 42.416 7.41982 42.416C6.97748 42.416 6.62076 42.3158 6.27831 42.0866C6.0072 41.9147 5.69328 41.5995 5.60767 41.4133C5.50779 41.2127 5.42217 40.783 5.42217 40.4535C5.42217 40.1097 5.77889 38.1329 6.20696 36.0415C6.63503 33.95 6.99175 32.0878 6.99175 31.8872C6.99175 31.6867 6.90614 31.3572 6.80625 31.1567C6.72064 30.9418 5.29375 29.5523 3.63856 28.0625C1.98337 26.5727 0.499411 25.1545 0.313915 24.8967C0.0856133 24.5815 0 24.2377 0 23.7937C0 23.4069 0.114151 22.9628 0.285378 22.6906C0.442335 22.4328 0.784788 22.1176 1.02736 21.9887C1.29847 21.8741 2.73962 21.6306 4.35201 21.4444C5.92158 21.2582 7.22005 21.1006 7.23432 21.0863V21.0863Z" fill="#6184FF"/>
<g id="Vector_3">
<path d="M49.5415 14.2676C48.5427 14.153 47.4297 14.0241 47.0587 13.9811C46.4309 13.9095 46.3738 13.9238 46.1598 14.3249C46.0314 14.5684 45.9315 14.8406 45.9315 14.9409C45.9315 15.0411 46.2026 15.1701 46.545 15.2274C46.8875 15.2703 48.2002 15.4422 49.4702 15.5855C50.7401 15.7287 51.8245 15.8147 51.8673 15.7717C51.9244 15.7287 51.8959 15.4566 51.8102 15.1701C51.7246 14.8692 51.5962 14.5971 51.5106 14.5541C51.425 14.5111 50.5546 14.3822 49.5415 14.2676Z" fill="#0C15F4"/>
<path d="M56.6474 21.0003L55.5772 20.9144L51.0825 25.0113C48.614 27.2603 46.4737 29.2514 46.331 29.4233C46.1883 29.5952 46.0171 29.982 45.9315 30.2685C45.8316 30.7126 45.9315 31.4575 46.5165 34.3511C46.916 36.3136 47.3013 38.0469 47.3726 38.2188C47.5153 38.534 47.5439 38.534 47.9434 38.3334C48.1717 38.2188 48.5855 38.1186 48.8281 38.1186C49.142 38.1186 49.8269 38.4051 50.7972 38.9494C51.6248 39.4221 53.3513 40.3962 54.6498 41.1268C56.9042 42.4017 57.0327 42.4447 57.7461 42.4017C58.3597 42.3587 58.5737 42.2585 58.959 41.886C59.3157 41.5422 59.3728 41.4133 59.2158 41.3703C59.1016 41.3273 58.6165 41.2414 58.1456 41.1411C57.6748 41.0552 56.7473 40.7257 56.0766 40.3962C55.406 40.0811 54.1218 39.3219 53.2229 38.7202C52.1384 38.004 51.0683 37.1158 50.0552 36.1274C48.9565 35.0244 48.4285 34.3941 48.1717 33.8211C47.9719 33.3913 47.7722 32.6751 47.7151 32.2453C47.658 31.6867 47.7008 31.2856 47.8435 30.8845C48.029 30.4261 49.0564 29.409 52.9946 25.7991C55.7056 23.3209 57.8888 21.2438 57.8174 21.1865C57.7604 21.1436 57.2324 21.0576 56.6474 21.0003Z" fill="#0C15F4"/>
</g>
</g>
</g>
</svg>
